# xmcd
#
# Track frame offsets:
#	150
#	21135
#	44515
#	61442
#	95449
#	123713
#	142981
#	176061
#	195623
#	222716
#
# Disc length: 3156 seconds
#
# Revision: 0
# Processed by: cddbd v1.5.2PL0 Copyright (c) Steve Scherf et al.
# Submitted via: audiograbber 1.83.01
#
DISCID=9a0c520a
DTITLE=Cecil Welch - Moonlight Blues
DYEAR=2001
DGENRE=Blues
TTITLE0=I Can't Get Started
TTITLE1=Sugar Blues
TTITLE2=What A Wonderful World
TTITLE3=I Remember Louie (Medley)
TTITLE4=Tenderly
TTITLE5=Moonlight Blues
TTITLE6=Three By The Master (Medley)
TTITLE7=Moonlight Feels Right
TTITLE8=God Bless The Child
TTITLE9=Mull Of Kintyre
EXTD=
EXTT0=
EXTT1=
EXTT2=
EXTT3=
EXTT4=
EXTT5=
EXTT6=
EXTT7=
EXTT8=
EXTT9=
PLAYORDER=
